HIERARCHY
ROOT Hips
{
	OFFSET 0.000000 0.000000 0.000000
	CHANNELS 6 Xposition Yposition Zposition Zrotation Yrotation Xrotation 
	JOINT LeftUpLeg_virtual
	{
		OFFSET 0.000000 0.000000 0.000000
		CHANNELS 3 Zrotation Yrotation Xrotation
		JOINT LeftUpLeg
		{
			OFFSET 10.205400 -3.823500 0.155100
			CHANNELS 3 Zrotation Yrotation Xrotation
			JOINT LeftLeg
			{
				OFFSET 0.708757 -12.982077 0.567790
				CHANNELS 3 Zrotation Yrotation Xrotation
				JOINT LeftFoot
				{
					OFFSET -0.708756 -10.717838 -2.184338
					CHANNELS 3 Zrotation Yrotation Xrotation
					JOINT LeftToeBase
					{
						OFFSET 0.108149 -7.191104 7.560241
						CHANNELS 3 Zrotation Yrotation Xrotation
						End Site
						{
							OFFSET 0.000000 0.000000 0.000000
						}
					}
				}
			}
		}
	}
	JOINT RightUpLeg_virtual
	{
		OFFSET 0.000000 0.000000 0.000000
		CHANNELS 3 Zrotation Yrotation Xrotation
		JOINT RightUpLeg
		{
			OFFSET -10.205400 -3.823500 0.005500
			CHANNELS 3 Zrotation Yrotation Xrotation
			JOINT RightLeg
			{
				OFFSET -0.708756 -12.982134 0.610632
				CHANNELS 3 Zrotation Yrotation Xrotation
				JOINT RightFoot
				{
					OFFSET 0.708754 -10.717769 -1.945823
					CHANNELS 3 Zrotation Yrotation Xrotation
					JOINT RightToeBase
					{
						OFFSET -0.108140 -7.191069 7.372968
						CHANNELS 3 Zrotation Yrotation Xrotation
						End Site
						{
							OFFSET 0.000000 0.000000 0.000000
						}
					}
				}
			}
		}
	}
	JOINT Spine_virtual
	{
		OFFSET 0.000000 0.000000 0.000000
		CHANNELS 3 Zrotation Yrotation Xrotation
		JOINT Spine
		{
			OFFSET 0.000000 6.876099 0.125700
			CHANNELS 3 Zrotation Yrotation Xrotation
			JOINT Spine1
			{
				OFFSET 0.000000 8.022060 0.146608
				CHANNELS 3 Zrotation Yrotation Xrotation
				JOINT Spine2
				{
					OFFSET 0.000000 9.168068 0.167552
					CHANNELS 3 Zrotation Yrotation Xrotation
					JOINT Neck_virtual
					{
						OFFSET 0.000000 0.000000 0.000000
						CHANNELS 3 Zrotation Yrotation Xrotation
						JOINT Neck
						{
							OFFSET 0.000000 10.314075 0.188496
							CHANNELS 3 Zrotation Yrotation Xrotation
							JOINT Head
							{
								OFFSET 0.000000 7.643700 -2.377400
								CHANNELS 3 Zrotation Yrotation Xrotation
								End Site
								{
									OFFSET 0.000000 0.000000 0.000000
								}
							}
						}
					}
					JOINT LeftShoulder_virtual
					{
						OFFSET 0.000000 0.000000 0.000000
						CHANNELS 3 Zrotation Yrotation Xrotation
						JOINT LeftShoulder
						{
							OFFSET 4.392200 8.824978 0.174984
							CHANNELS 3 Zrotation Yrotation Xrotation
							JOINT LeftArm
							{
								OFFSET 8.771219 -2.981674 -0.026999
								CHANNELS 3 Zrotation Yrotation Xrotation
								JOINT LeftForeArm
								{
									OFFSET 8.512804 0.000000 -0.000000
									CHANNELS 3 Zrotation Yrotation Xrotation
									JOINT LeftHand
									{
										OFFSET 18.484802 0.000000 -0.000000
										CHANNELS 3 Zrotation Yrotation Xrotation
										End Site
										{
											OFFSET 0.000000 0.000000 0.000000
										}
									}
								}
							}
						}
					}
					JOINT RightShoulder_virtual
					{
						OFFSET 0.000000 0.000000 0.000000
						CHANNELS 3 Zrotation Yrotation Xrotation
						JOINT RightShoulder
						{
							OFFSET -4.392200 8.824993 0.141379
							CHANNELS 3 Zrotation Yrotation Xrotation
							JOINT RightArm
							{
								OFFSET -8.771282 -2.981682 -0.094208
								CHANNELS 3 Zrotation Yrotation Xrotation
								JOINT RightForeArm
								{
									OFFSET -8.494598 0.000000 0.000000
									CHANNELS 3 Zrotation Yrotation Xrotation
									JOINT RightHand
									{
										OFFSET -18.483803 0.000000 0.000001
										CHANNELS 3 Zrotation Yrotation Xrotation
										End Site
										{
											OFFSET 0.000000 0.000000 0.000000
										}
									}
								}
							}
						}
					}
				}
			}
		}
	}
}
MOTION
Frames: 7
Frame Time: 0.033333
18.895536 36.481602 -8.271236 179.974173 2.262529 -179.920584 -2.658580 -1.801651 9.923841 -5.350602 -4.163977 -17.547145 9.517664 8.848519 14.195533 -6.625363 -0.633384 11.189179 0.000000 0.000000 0.000000 2.388387 0.429735 9.106986 -0.392515 -6.799134 -1.243367 -8.641377 -1.617969 6.869677 10.234149 10.219434 9.789752 0.000000 0.000000 0.000000 1.775134 1.815562 0.122483 -4.661262 1.446870 -7.538528 0.011872 -5.098740 2.425681 0.014627 0.020934 0.024650 -0.378524 -3.434691 5.054220 -0.084831 2.324232 -2.868406 0.000000 0.000000 0.000000 1.035881 -2.469401 2.257704 6.809779 2.220543 -6.990864 -10.666666 16.941378 -27.674487 -7.156840 -27.068368 -4.951926 0.000000 0.000000 0.000000 -2.515094 -1.681291 1.829397 2.710146 -4.283068 -13.106254 42.860475 -32.136942 -35.607470 -0.587713 33.657653 -9.335792 0.000000 0.000000 0.000000 
18.900414 36.484955 -8.303825 179.978053 2.238880 -179.853074 -2.607603 -1.830230 9.999627 -5.235359 -4.109213 -17.450367 9.707896 9.019856 14.401690 -6.455597 -0.455559 11.352141 0.000000 0.000000 0.000000 2.489801 0.568276 9.225458 -0.479792 -6.868552 -1.117943 -8.671191 -1.571188 7.118264 10.644184 10.327693 9.814413 0.000000 0.000000 0.000000 1.744361 1.907938 0.102505 -4.639344 1.484762 -7.601840 0.021369 -5.087238 2.439017 0.017212 0.032211 0.014943 -0.382128 -3.421206 5.095569 -0.077183 2.311840 -2.826934 0.000000 0.000000 0.000000 1.016095 -2.455905 2.308559 6.869796 2.209509 -7.035906 -10.680734 17.001871 -27.800651 -7.146828 -27.089476 -4.883825 0.000000 0.000000 0.000000 -2.528447 -1.719218 1.892073 2.777164 -4.292242 -13.034108 42.849100 -32.125419 -35.630344 -0.546945 33.717219 -9.293962 0.000000 0.000000 0.000000 
18.916517 36.483749 -8.344031 179.897921 2.069006 -179.847979 -2.688993 -1.779592 10.054516 -5.172608 -4.160615 -17.483479 9.648569 8.987656 14.375844 -6.544400 -0.452027 11.348753 0.000000 0.000000 0.000000 2.445790 0.605969 9.322957 -0.527755 -7.020157 -1.141523 -8.598109 -1.514938 7.251141 10.494420 10.243013 9.647594 0.000000 0.000000 0.000000 1.642662 1.900473 0.146484 -4.673356 1.506664 -7.697872 -0.003408 -5.057137 2.423622 0.001073 0.035925 0.030580 -0.371427 -3.423281 5.085775 -0.001131 2.318560 -2.676547 0.000000 0.000000 0.000000 1.038201 -2.433209 2.304265 6.945547 2.143015 -7.047031 -10.605151 17.091823 -27.749237 -7.126370 -27.119357 -4.810242 0.000000 0.000000 0.000000 -2.517974 -1.680908 1.900763 2.859538 -4.249605 -13.004727 42.815352 -32.127994 -35.663157 -0.501639 33.773206 -9.258818 0.000000 0.000000 0.000000 
18.940643 36.486469 -8.382441 179.978667 1.892345 -179.855984 -2.617112 -1.744550 10.112409 -5.062726 -4.186638 -17.524291 9.576644 9.037660 14.418944 -6.664610 -0.485443 11.335144 0.000000 0.000000 0.000000 2.601558 0.647003 9.410913 -0.560338 -7.260688 -1.206948 -8.554020 -1.679685 7.461723 10.722460 10.077198 9.565034 0.000000 0.000000 0.000000 1.672425 1.889199 0.239534 -4.622830 1.536839 -7.818815 0.025670 -5.050129 2.404728 0.009226 0.018978 0.006108 -0.412537 -3.325384 5.139487 0.156770 2.344356 -2.464502 0.000000 0.000000 0.000000 0.992071 -2.341719 2.260179 6.992420 2.035731 -6.897528 -10.508650 17.249489 -27.829500 -7.158450 -27.119295 -4.758064 0.000000 0.000000 0.000000 -2.552457 -1.606376 1.939347 2.956775 -4.189456 -13.017411 42.756086 -32.179644 -35.691430 -0.416112 33.806267 -9.215600 0.000000 0.000000 0.000000 
18.969275 36.487556 -8.412181 179.961046 1.532804 -179.853825 -2.611981 -1.844254 10.130696 -4.961987 -4.290563 -17.567035 9.500436 9.106293 14.444639 -6.793106 -0.498636 11.389993 0.000000 0.000000 0.000000 2.650726 0.518633 9.517510 -0.476772 -7.487883 -1.319529 -8.546246 -1.669849 7.617222 10.774692 9.928035 9.586118 0.000000 0.000000 0.000000 1.673686 1.856902 0.286171 -4.606969 1.551107 -7.937788 0.038359 -5.012814 2.429539 0.025720 0.003855 0.075608 -0.382503 -3.299848 5.025983 0.344751 2.352365 -2.210024 0.000000 0.000000 0.000000 1.012155 -2.324303 2.235309 7.022174 1.828254 -6.951854 -10.425711 17.190650 -27.749906 -7.140310 -27.133155 -4.655378 0.000000 0.000000 0.000000 -2.564354 -1.644585 1.851535 3.102883 -4.143801 -12.863368 42.678283 -32.142880 -35.752946 -0.365303 33.820477 -9.199085 0.000000 0.000000 0.000000 
19.006901 36.484840 -8.428308 179.956360 1.253968 -179.862595 -2.589349 -1.840941 10.140585 -4.812332 -4.357645 -17.604031 9.439812 9.153433 14.523170 -6.898858 -0.517015 11.378719 0.000000 0.000000 0.000000 2.693493 0.476165 9.632220 -0.428854 -7.714549 -1.452948 -8.509797 -1.673767 7.831926 10.816800 9.713413 9.505108 0.000000 0.000000 0.000000 1.683301 1.841886 0.342602 -4.599794 1.565590 -8.076259 0.052073 -4.944490 2.447010 0.021722 0.004470 0.078775 -0.355606 -3.261853 4.997157 0.542319 2.358338 -1.909836 0.000000 0.000000 0.000000 1.019541 -2.278904 2.242298 7.029696 1.533508 -6.913545 -10.410251 17.187249 -27.584720 -7.102054 -27.189245 -4.527954 0.000000 0.000000 0.000000 -2.572275 -1.517378 1.787148 3.208063 -4.248001 -12.786203 42.524000 -32.082553 -35.799118 -0.274480 33.905401 -9.137744 0.000000 0.000000 0.000000 
19.052141 36.482117 -8.433531 179.865095 1.139670 -179.849768 -2.660712 -1.740976 10.170693 -4.652952 -4.490031 -17.683394 9.363289 9.219737 14.565124 -6.999331 -0.576596 11.379791 0.000000 0.000000 0.000000 2.627903 0.523296 9.754571 -0.333690 -7.850520 -1.636321 -8.431540 -1.555635 8.050443 10.558544 9.597731 9.338913 0.000000 0.000000 0.000000 1.655144 1.831502 0.369629 -4.612690 1.588260 -8.228992 0.053026 -4.828020 2.484001 0.007385 0.030928 0.025635 -0.275626 -3.220991 5.023481 0.734614 2.377681 -1.558425 0.000000 0.000000 0.000000 1.078413 -2.198374 2.272568 7.057589 1.190345 -6.938740 -10.475293 17.205124 -27.339850 -7.028967 -27.319824 -4.387363 0.000000 0.000000 0.000000 -2.528510 -1.442718 1.833518 3.302211 -4.236746 -12.641994 42.448301 -32.080080 -36.005639 -0.142717 33.993117 -8.956024 0.000000 0.000000 0.000000 
